<svg width="16" height="16" viewBox="0 0 16 16" fill="none" xmlns="http://www.w3.org/2000/svg">
<path d="M4.18991 0.397036C3.66664 0.516739 3.21861 0.862166 2.98262 1.33414C2.91422 1.47094 2.84924 1.6351 2.83556 1.70008L2.81504 1.81637H1.84032H0.865599L0.766417 1.91555C0.650134 2.03183 0.629614 2.23019 0.721956 2.36016C0.834818 2.51748 0.94084 2.53458 1.90872 2.53458H2.81162L2.85266 2.67822C3.18441 3.79659 4.5627 4.30618 5.54426 3.67004C5.8931 3.44432 6.17697 3.06811 6.30693 2.66454L6.34797 2.53458L10.7222 2.52774L15.0965 2.51748L15.1923 2.44566C15.3701 2.31228 15.3804 2.05919 15.2196 1.89845L15.1376 1.81637H10.7462H6.35481L6.27615 1.58038C6.00597 0.732203 5.06545 0.198672 4.18991 0.397036ZM4.91496 1.13235C5.20225 1.21443 5.52032 1.55302 5.61266 1.87451C5.78024 2.45592 5.42113 3.04759 4.8021 3.20491C4.03601 3.39986 3.32121 2.63034 3.54009 1.84373C3.62902 1.5325 3.94024 1.22811 4.28909 1.11525C4.45667 1.06053 4.69608 1.06737 4.91496 1.13235Z" fill="#C31723"/>
<path d="M10.859 6.24536C10.3358 6.36507 9.88775 6.71049 9.65176 7.18246C9.58336 7.31927 9.51838 7.48343 9.5047 7.54841L9.48418 7.66469H5.17489H0.865599L0.766417 7.76388C0.650134 7.88016 0.629614 8.07852 0.721956 8.20848C0.851918 8.38975 0.677495 8.38291 5.24329 8.38291H9.48076L9.5218 8.52655C9.85355 9.64491 11.2318 10.1545 12.2134 9.51837C12.5622 9.29265 12.8461 8.91644 12.9761 8.50945L13.0205 8.38291H13.9816C14.5527 8.38291 14.9973 8.36923 15.076 8.34529C15.2162 8.30767 15.3393 8.15376 15.3393 8.01354C15.3393 7.90752 15.2504 7.74336 15.1718 7.69889C15.1307 7.67837 14.7135 7.66469 14.0637 7.66469H13.024L12.9453 7.42871C12.6751 6.58053 11.7346 6.047 10.859 6.24536ZM11.5841 6.98068C11.8714 7.06276 12.1895 7.40135 12.2818 7.72283C12.4494 8.30425 12.0903 8.89592 11.4712 9.05324C10.7051 9.24819 9.99035 8.47867 10.2092 7.69205C10.2982 7.38083 10.6094 7.07644 10.9582 6.96358C11.1258 6.90886 11.3652 6.9157 11.5841 6.98068Z" fill="#C31723"/>
<path d="M6.92596 12.0937C6.40269 12.2134 5.95466 12.5588 5.71868 13.0308C5.65028 13.1676 5.5853 13.3318 5.57162 13.3967L5.5511 13.513H3.20835H0.865599L0.766417 13.6122C0.650134 13.7285 0.629614 13.9268 0.721956 14.0568C0.845078 14.2312 0.838238 14.2312 3.27675 14.2312H5.54768L5.58872 14.3749C5.92046 15.4932 7.29875 16.0028 8.28031 15.3667C8.62916 15.141 8.91303 14.7648 9.04299 14.3578L9.08745 14.2312H12.015C13.9679 14.2312 14.9905 14.2176 15.076 14.1936C15.2162 14.156 15.3393 14.0021 15.3393 13.8619C15.3393 13.7558 15.2504 13.5917 15.1718 13.5472C15.1273 13.5233 14.0944 13.513 12.0971 13.513H9.09087L9.01221 13.277C8.74202 12.4289 7.8015 11.8953 6.92596 12.0937ZM7.65102 12.829C7.93831 12.9111 8.25637 13.2497 8.34871 13.5712C8.5163 14.1526 8.15719 14.7442 7.53816 14.9016C6.77206 15.0965 6.05727 14.327 6.27615 13.5404C6.36507 13.2292 6.6763 12.9248 7.02515 12.8119C7.19273 12.7572 7.43214 12.764 7.65102 12.829Z" fill="#C31723"/>
</svg>
