<svg width="36" height="30" viewBox="0 0 36 30" fill="none" xmlns="http://www.w3.org/2000/svg">
<g clip-path="url(#clip0_2034_1924)">
<path fill-rule="evenodd" clip-rule="evenodd" d="M27.5761 29.6693C27.814 29.8386 28.0898 29.947 28.3793 29.9849C28.6688 30.0228 28.9632 29.9891 29.2366 29.8868C29.5084 29.7842 29.7502 29.6151 29.9399 29.395C30.1296 29.1749 30.2612 28.9108 30.3226 28.6268C31.6261 22.5007 34.788 6.99499 35.9745 1.42242C36.0185 1.21534 36.0054 1.00023 35.9367 0.799995C35.868 0.599763 35.7463 0.421915 35.5845 0.2854C35.4219 0.147279 35.2254 0.055009 35.0153 0.0180964C34.8052 -0.0188162 34.589 0.000963463 34.389 0.0753974C28.0996 2.40343 8.73036 9.67103 0.813452 12.6006C0.56949 12.69 0.359777 12.8538 0.213907 13.0689C0.0680377 13.2839 -0.00662297 13.5393 0.000461323 13.7991C0.0184611 14.3301 0.375457 14.7906 0.889951 14.9451C4.44041 16.0071 9.10085 17.4846 9.10085 17.4846C9.10085 17.4846 11.2788 24.0622 12.4143 27.4073C12.5568 27.8273 12.8853 28.1573 13.3188 28.2713C13.5313 28.3266 13.7543 28.3271 13.967 28.2728C14.1798 28.2185 14.3753 28.1111 14.5353 27.9608L19.1792 23.5762C19.1792 23.5762 24.5372 27.5048 27.5761 29.6693ZM11.0613 16.6536L13.5798 24.9607L14.1393 19.7002L29.4166 5.92098C29.495 5.85057 29.5438 5.75299 29.553 5.648C29.5622 5.543 29.5311 5.43843 29.4661 5.35547C29.4008 5.27233 29.3069 5.21645 29.2026 5.1987C29.0984 5.18096 28.9913 5.20262 28.9021 5.25947L11.0613 16.6536Z" fill="#D9D9D9"/>
</g>
<defs>
<clipPath id="clip0_2034_1924">
<rect width="36" height="30" fill="white"/>
</clipPath>
</defs>
</svg>
