<svg width="36" height="21" viewBox="0 0 36 21" fill="none" xmlns="http://www.w3.org/2000/svg">
<path fill-rule="evenodd" clip-rule="evenodd" d="M35.174 1.42198C35.4242 0.60231 35.174 0 33.983 0H30.0446C29.0432 0 28.5815 0.520305 28.3311 1.09404C28.3311 1.09404 26.3282 5.8891 23.4909 9.00375C22.5731 9.9054 22.1558 10.1924 21.6551 10.1924C21.4047 10.1924 21.0291 9.9054 21.0291 9.0858V1.42198C21.0291 0.438375 20.7518 0 19.9172 0H13.7282C13.1024 0 12.7261 0.45651 12.7261 0.88917C12.7261 1.82162 14.1446 2.03666 14.2908 4.65962V10.3563C14.2908 11.6052 14.0612 11.8317 13.5605 11.8317C12.2254 11.8317 8.97762 7.01523 7.0514 1.50392C6.67391 0.432705 6.2953 0 5.28875 0H1.35033C0.225066 0 0 0.520305 0 1.09404C0 2.11866 1.33521 7.20059 6.21697 13.9218C9.47145 18.5118 14.0568 21 18.2292 21C20.7327 21 21.0425 20.4474 21.0425 19.4955V16.0263C21.0425 14.9211 21.2796 14.7004 22.0724 14.7004C22.6565 14.7004 23.6579 14.9874 25.9944 17.2005C28.6649 19.8234 29.1051 21 30.6071 21H34.5456C35.6708 21 36.2334 20.4474 35.9088 19.3567C35.5536 18.2698 34.2788 16.6929 32.5871 14.8235C31.6691 13.7579 30.2921 12.6103 29.8748 12.0364C29.2907 11.2989 29.4576 10.971 29.8748 10.3153C29.8748 10.3153 34.6733 3.676 35.174 1.42198Z" fill="#D9D9D9"/>
</svg>
