<svg width="30" height="25" viewBox="0 0 30 25" fill="none" xmlns="http://www.w3.org/2000/svg">
<path d="M7.17177 0.036623C5.27333 0.281727 3.6034 1.05967 2.27331 2.32249C1.11315 3.42013 0.374866 4.74689 0.087755 6.26548C-0.0411518 6.91554 -0.0235736 8.14639 0.111193 8.89236C0.849477 12.7661 4.66981 17.5882 11.0448 22.6555C12.2284 23.5986 13.7988 24.7229 14.1152 24.8615C14.3964 24.9787 14.5195 25 14.9999 25C15.7617 25 15.9609 24.9041 17.291 23.9237C20.8945 21.2542 24.0703 18.3395 26.209 15.7286C28.7988 12.5796 30 9.96336 30 7.49633C30 6.28146 29.7715 5.33302 29.2324 4.30464C28.125 2.18928 26.0801 0.702667 23.5312 0.153847C22.9453 0.0312939 22.7695 0.0153084 21.7382 0.0153084C20.7949 0.0153084 20.5019 0.036623 20.039 0.127205C18.205 0.500191 16.5761 1.36871 15.4335 2.58358C15.2226 2.80737 15.0292 2.99386 14.9999 2.99386C14.9706 2.99386 14.7773 2.80737 14.5663 2.58358C13.4238 1.36871 11.789 0.494862 10.0019 0.137861C9.39249 0.0153084 7.76943 -0.0433025 7.17177 0.036623ZM9.34561 1.82162C10.6347 2.02943 11.789 2.56759 12.7148 3.39349C13.2304 3.85706 13.582 4.28866 13.9863 4.96536C14.2265 5.38097 14.3027 5.4609 14.5312 5.56213C14.6718 5.6314 14.8827 5.68469 14.9999 5.68469C15.1171 5.68469 15.3281 5.6314 15.4687 5.56213C15.6972 5.4609 15.7734 5.38097 16.0136 4.96536C16.4179 4.28866 16.7695 3.85706 17.2851 3.39349C19.7343 1.20353 23.6074 1.18755 26.1094 3.35086C27.9023 4.90142 28.5 7.09137 27.7676 9.45184C26.748 12.7714 22.9336 17.1993 17.3437 21.5685C16.2538 22.4157 15.082 23.2683 14.9999 23.2683C14.8652 23.2683 12.6855 21.6218 11.1913 20.3963C10.1952 19.5757 7.97451 17.535 7.21279 16.741C4.14246 13.544 2.46667 10.9278 2.02136 8.60463C1.90417 8.02384 1.91003 6.98481 2.02722 6.43066C2.43738 4.44851 4.07215 2.73277 6.19325 2.05607C7.1249 1.75768 8.36123 1.6671 9.34561 1.82162Z" fill="#D9D9D9"/>
</svg>
