<svg width="30" height="25" viewBox="0 0 30 25" fill="none" xmlns="http://www.w3.org/2000/svg">
<path d="M18.4621 22.6335C21.7306 20.278 26.4474 16.5903 28.413 13.641C29.8837 11.4376 30.3622 8.70777 29.7225 6.16964C28.3557 0.387999 20.7872 -1.97452 16.0728 1.89999C15.8077 2.11646 15.5632 2.35643 15.3124 2.60284C15.21 2.70341 15.1065 2.80503 15 2.90657C14.8935 2.80503 14.79 2.70339 14.6877 2.60283C14.4368 2.35643 14.1924 2.11646 13.9272 1.89999C9.2128 -1.97452 1.64428 0.387999 0.277497 6.16964C-0.362209 8.70777 0.116276 11.4376 1.58707 13.641C3.55263 16.5903 8.26941 20.278 11.5379 22.6335C12.1809 23.0969 13.6414 24.0854 14.4447 24.6266C14.781 24.8532 15.219 24.8532 15.5553 24.6266C16.3587 24.0854 17.8191 23.0969 18.4621 22.6335Z" fill="#C31723"/>
</svg>
