<svg width="166" height="50" viewBox="0 0 166 50" fill="none" xmlns="http://www.w3.org/2000/svg">
<path fill-rule="evenodd" clip-rule="evenodd" d="M26.3718 5.42358C27.6768 5.41574 31.5554 5.06501 33.1983 10.632C34.3049 14.382 36.0678 20.5247 38.4868 29.06H39.472C42.0662 20.0615 43.8483 13.9188 44.8183 10.632C46.4783 5.00702 50.6283 5.42369 52.2883 5.42369L65.0956 5.4237V45.4236H52.042V21.851H51.1667L43.89 45.4236H34.0689L26.7922 21.8335H25.9168V45.4236H12.8633V5.4237L26.3718 5.42358ZM83.8402 5.4237V29.0139H84.8815L93.733 9.61584C95.4512 5.75558 99.1133 5.4237 99.1133 5.4237H111.745V45.4237H98.4191V21.8335H97.3777L88.6998 41.2315C86.9816 45.0743 83.146 45.4237 83.146 45.4237H70.514V5.4237H83.8402ZM157.806 24.432C155.948 29.7207 150.11 33.5083 143.647 33.5083H129.672V45.4237H116.999V24.432H157.806Z" fill="#0F754E"/>
<path fill-rule="evenodd" clip-rule="evenodd" d="M144.259 5.42383H116.336C117 14.3292 124.639 21.9527 132.546 21.9527H158.688C160.196 14.5513 155.003 5.42383 144.259 5.42383Z" fill="url(#paint0_linear_334_7834)"/>
<defs>
<linearGradient id="paint0_linear_334_7834" x1="4377.17" y1="1045.16" x2="116.336" y2="1045.16" gradientUnits="userSpaceOnUse">
<stop stop-color="#1F5CD7"/>
<stop offset="1" stop-color="#02AEFF"/>
</linearGradient>
</defs>
</svg>
