<svg width="146" height="72" viewBox="0 0 146 72" fill="none" xmlns="http://www.w3.org/2000/svg">
<g clip-path="url(#clip0_334_7841)">
<path d="M125.882 20.5522V38.155H119.526V25.807H113.407V38.155H107.051V20.551H125.882V20.5522Z" fill="white"/>
<path fill-rule="evenodd" clip-rule="evenodd" d="M94 38.7844C99.6896 38.7844 103.915 35.3344 103.915 30.1042C103.915 25.042 100.797 21.7552 95.5877 21.7552C93.1834 21.7552 91.1995 22.5922 89.7052 24.0364C90.0619 21.0514 92.6143 18.8722 95.4245 18.8722C96.073 18.8722 100.956 18.862 100.956 18.862L103.717 13.6366C103.717 13.6366 97.5867 13.7746 94.7371 13.7746C88.2261 13.8868 83.8281 19.7398 83.8281 26.8486C83.8281 35.1304 88.1175 38.7844 94 38.7844ZM94.0345 26.3836C96.1471 26.3836 97.6116 27.7564 97.6116 30.1036C97.6116 32.2162 96.3103 33.9568 94.0345 33.9616C91.8577 33.9616 90.3932 32.3488 90.3932 30.1396C90.3932 27.7918 91.8577 26.3836 94.0345 26.3836Z" fill="white"/>
<path d="M78.653 32.2618C78.653 32.2618 77.1521 33.1174 74.9103 33.2794C72.3331 33.355 70.0367 31.7452 70.0367 28.885C70.0367 26.095 72.0631 24.496 74.8454 24.496C76.5514 24.496 78.8083 25.6654 78.8083 25.6654C78.8083 25.6654 80.4598 22.6684 81.3152 21.1696C79.7487 19.9954 77.6623 19.3516 75.2355 19.3516C69.1109 19.3516 64.3672 23.3008 64.3672 28.8496C64.3672 34.4692 68.8258 38.3266 75.2355 38.2102C77.0271 38.1442 79.4988 37.522 81.0052 36.565L78.653 32.2618Z" fill="white"/>
<path d="M0.5 15.672L9.31649 31.257V40.7634L0.510314 56.3178L0.5 15.672Z" fill="#5B57A2"/>
<path d="M34.3516 25.5858L42.6129 20.5782L59.5203 20.5626L34.3516 35.811V25.5858Z" fill="#F63277"/>
<path d="M34.306 15.5802L34.3527 36.2142L25.5156 30.8442V0L34.306 15.5802Z" fill="#FAB718"/>
<path d="M59.5215 20.5626L42.6135 20.5782L34.306 15.5802L25.5156 0L59.5215 20.5626Z" fill="#ED6F26"/>
<path d="M34.3527 56.4042V46.3932L25.5156 41.1252L25.5205 72L34.3527 56.4042Z" fill="#63B22F"/>
<path d="M42.5925 51.4422L9.31588 31.257L0.5 15.672L59.4847 51.4218L42.5925 51.4422Z" fill="#1487C9"/>
<path d="M25.5195 72L34.3506 56.4042L42.5913 51.4422L59.4835 51.4218L25.5195 72Z" fill="#017F36"/>
<path d="M0.511719 56.3179L25.5882 41.1259L17.1576 36.0103L9.31789 40.7635L0.511719 56.3179Z" fill="#984995"/>
<path d="M70.037 50.002C69.8428 50.2468 69.5874 50.4316 69.281 50.5564C68.9667 50.6829 68.6303 50.7473 68.2909 50.746C67.9534 50.7505 67.6177 50.6948 67.3002 50.5816C67.0149 50.4791 66.7542 50.3194 66.5345 50.1124C66.3176 49.905 66.1472 49.6548 66.0346 49.378C65.9127 49.0747 65.8519 48.7509 65.8556 48.4246C65.8556 48.1006 65.9121 47.8006 66.0291 47.5162C66.1414 47.2312 66.3046 46.987 66.509 46.7818C66.7135 46.5724 66.9586 46.4128 67.234 46.288C67.5149 46.168 67.8213 46.1032 68.158 46.1032C68.5208 46.1032 68.8576 46.1482 69.1639 46.2376C69.4703 46.3276 69.7306 46.4776 69.9448 46.6876L69.5722 47.3116C69.3921 47.1501 69.1799 47.0275 68.9492 46.9516C68.7298 46.8817 68.5007 46.8465 68.2703 46.8472C68.0664 46.8472 67.8723 46.8868 67.6836 46.9618C67.4977 47.0358 67.3278 47.1444 67.1831 47.2816C67.0352 47.4227 66.9187 47.5927 66.8409 47.7808C66.7541 47.9752 66.7135 48.19 66.7135 48.4294C66.7135 48.6742 66.759 48.8938 66.8458 49.0834C66.9331 49.2784 67.0502 49.4434 67.1982 49.5826C67.3463 49.723 67.5198 49.8274 67.7188 49.8976C67.9184 49.9726 68.1277 50.0074 68.3522 50.0074C68.6276 50.0074 68.8782 49.9522 69.0923 49.8472C69.3046 49.7458 69.4952 49.6053 69.6541 49.4332L70.037 50.002ZM71.0884 50.641V46.198H71.8953V49.5082L74.5192 46.198H75.3261V50.6416H74.5192V47.3314L71.8953 50.6416L71.0884 50.641ZM80.6711 50.002C80.4726 50.2488 80.2122 50.44 79.9158 50.5564C79.6012 50.6829 79.2646 50.7473 78.925 50.746C78.5877 50.7504 78.2523 50.6948 77.9349 50.5816C77.6495 50.4791 77.3886 50.3194 77.1687 50.1124C76.9517 49.905 76.7814 49.6548 76.6687 49.378C76.5468 49.0747 76.486 48.7509 76.4898 48.4246C76.4898 48.1006 76.5462 47.8006 76.6633 47.5162C76.7761 47.2312 76.9393 46.987 77.1432 46.7818C77.3476 46.5724 77.5927 46.4128 77.8682 46.288C78.1591 46.1613 78.4743 46.0982 78.7922 46.1032C79.155 46.1032 79.4917 46.1482 79.7981 46.2376C80.1045 46.3276 80.3647 46.4776 80.5795 46.6876L80.2064 47.3116C80.0265 47.15 79.8145 47.0274 79.5839 46.9516C79.3646 46.8817 79.1355 46.8465 78.905 46.8472C78.4995 46.8485 78.11 47.004 77.8172 47.2816C77.6706 47.4237 77.5543 47.5935 77.475 47.7808C77.3883 47.9752 77.3476 48.19 77.3476 48.4294C77.3476 48.6742 77.3937 48.8938 77.4805 49.0834C77.5673 49.2784 77.6844 49.4434 77.8324 49.5826C77.9804 49.723 78.1545 49.8274 78.3535 49.8976C78.5525 49.9672 78.7618 50.0074 78.9863 50.0074C79.2624 50.0074 79.5075 49.9522 79.7265 49.8472C79.9387 49.7458 80.1294 49.6053 80.2883 49.4332L80.6711 50.002ZM81.0849 46.198H85.225V46.987H83.5608V50.641H82.7539V46.987H81.0897V46.198H81.0849Z" fill="white"/>
<path fill-rule="evenodd" clip-rule="evenodd" d="M88.9936 50.5966C89.3 50.5018 89.5603 50.3566 89.7847 50.1574L89.5397 49.5382C89.3916 49.6684 89.1926 49.7782 88.953 49.8682C88.7127 49.9582 88.4421 50.0026 88.1461 50.0026C87.702 50.0026 87.3343 49.888 87.0431 49.6534C86.7525 49.4182 86.5941 49.0894 86.5584 48.6694H90.0505C90.0863 48.5146 90.1014 48.34 90.1014 48.1354C90.1014 47.8306 90.045 47.5564 89.9328 47.3068C89.8283 47.0644 89.6756 46.8453 89.4838 46.6624C89.2894 46.4813 89.0602 46.3405 88.8098 46.2484C88.5477 46.1478 88.2688 46.097 87.9877 46.0984C87.6098 46.0984 87.2779 46.1632 86.9873 46.2832C86.7125 46.3975 86.464 46.5657 86.2568 46.7776C86.0557 46.9884 85.9011 47.2383 85.803 47.5114C85.6952 47.8023 85.6415 48.11 85.6447 48.4198C85.6447 48.7696 85.7059 49.0888 85.8182 49.3738C85.9274 49.6499 86.0944 49.9 86.3084 50.1076C86.5177 50.3116 86.7725 50.467 87.074 50.5768C87.3969 50.69 87.7374 50.7457 88.0799 50.7412C88.3901 50.7393 88.6982 50.6902 88.9936 50.5966ZM86.9515 47.1766C87.2014 46.9522 87.5333 46.8424 87.9519 46.8424C88.3451 46.8424 88.6618 46.9474 88.8917 47.1574C89.1216 47.3668 89.2436 47.6566 89.2642 48.0256H86.5074C86.5465 47.6989 86.7043 47.3968 86.9515 47.1766Z" fill="white"/>
<path d="M91.1992 46.198H91.9345L93.6806 48.4L95.3344 46.198H96.0491V50.6416H95.2428V47.4016L93.6703 49.4632H93.6393L92.0061 47.401V50.641H91.1992V46.198Z" fill="white"/>
<path fill-rule="evenodd" clip-rule="evenodd" d="M98.2459 46.213C98.001 46.2762 97.7671 46.3753 97.5518 46.507L97.766 47.137C97.9498 47.047 98.1336 46.972 98.3175 46.9072C98.5013 46.8418 98.7361 46.8118 99.017 46.8118C99.2415 46.8118 99.4204 46.8472 99.5581 46.9168C99.6959 46.9816 99.7978 47.0818 99.8694 47.2018C99.941 47.3218 99.9871 47.4712 100.013 47.6458C100.038 47.8204 100.048 48.01 100.048 48.2152C99.8833 48.1014 99.6951 48.0246 99.4969 47.9901C99.3052 47.9525 99.1104 47.9324 98.9151 47.9302C98.6748 47.9302 98.4503 47.9656 98.2355 48.025C98.0214 48.085 97.8376 48.175 97.6895 48.295C97.5384 48.4147 97.4163 48.5664 97.3322 48.739C97.2422 48.9278 97.1968 49.1344 97.1993 49.3432C97.1993 49.7776 97.3273 50.1172 97.5821 50.3572C97.8376 50.5966 98.1743 50.716 98.5929 50.716C98.9709 50.716 99.2724 50.6512 99.5017 50.5216C99.7317 50.3914 99.9155 50.242 100.048 50.0722V50.6464H100.804V47.9206C100.804 47.341 100.676 46.8922 100.416 46.5772C100.161 46.2628 99.7062 46.1032 99.0631 46.1032C98.7767 46.1032 98.5061 46.1428 98.2459 46.213ZM99.5945 49.813C99.4107 49.9426 99.1705 50.002 98.8744 50.002C98.6141 50.002 98.4097 49.9372 98.2671 49.8124C98.1239 49.6828 98.0523 49.513 98.0523 49.303C98.0523 49.1788 98.0778 49.0738 98.1342 48.979C98.1907 48.8842 98.2671 48.8092 98.3539 48.7492C98.4488 48.6864 98.5541 48.6407 98.6651 48.6142C98.7828 48.5842 98.8999 48.5692 99.0224 48.5692C99.421 48.5692 99.7626 48.664 100.044 48.8638V49.4278C99.9111 49.5744 99.7602 49.7043 99.5945 49.813ZM107.926 44.635C108.089 44.5606 108.242 44.4358 108.386 44.251L107.946 43.627C107.834 43.777 107.707 43.8814 107.563 43.9366C107.412 43.9952 107.254 44.0386 107.094 44.0662L106.941 44.0932C106.808 44.116 106.666 44.1412 106.512 44.1664C106.266 44.2114 106.026 44.2851 105.797 44.386C105.435 44.5408 105.144 44.7502 104.924 45.0148C104.705 45.2794 104.531 45.5788 104.414 45.9088C104.294 46.2431 104.214 46.5897 104.174 46.942C104.133 47.302 104.113 47.6458 104.113 47.9752C104.113 48.4 104.168 48.784 104.281 49.1284C104.393 49.4734 104.551 49.7626 104.761 49.9972C104.97 50.2372 105.22 50.4172 105.516 50.5468C105.813 50.6764 106.144 50.7412 106.517 50.7412C106.859 50.7412 107.176 50.6764 107.462 50.5564C107.737 50.4411 107.987 50.2733 108.197 50.0626C108.401 49.8574 108.565 49.6126 108.677 49.3384C108.794 49.0636 108.85 48.769 108.85 48.4594C108.85 48.1252 108.799 47.821 108.702 47.551C108.613 47.2935 108.47 47.0573 108.284 46.8574C108.097 46.6607 107.868 46.5071 107.614 46.4074C107.335 46.2985 107.037 46.2443 106.737 46.2478C106.542 46.2478 106.354 46.273 106.17 46.3228C105.991 46.3726 105.819 46.4448 105.659 46.5376C105.503 46.6257 105.361 46.7347 105.236 46.8616C105.113 46.987 105.011 47.1268 104.94 47.2864H104.919C104.935 47.0818 104.96 46.8724 105.006 46.6576C105.052 46.4428 105.118 46.2376 105.205 46.0432C105.292 45.8488 105.404 45.6736 105.542 45.514C105.69 45.3529 105.871 45.2251 106.073 45.1396C106.295 45.0349 106.53 44.9594 106.772 44.9152L106.933 44.8864C107.092 44.8576 107.244 44.83 107.39 44.8C107.584 44.7604 107.762 44.7094 107.926 44.635ZM105.088 48.904C105.009 48.6519 104.971 48.389 104.975 48.1252C105.01 47.9737 105.072 47.8299 105.159 47.701C105.246 47.566 105.358 47.4466 105.491 47.341C105.791 47.1086 106.162 46.9838 106.542 46.987C107.017 46.987 107.375 47.1316 107.625 47.4166C107.875 47.7058 107.998 48.0652 107.998 48.4996C107.998 48.7144 107.957 48.9094 107.886 49.0888C107.817 49.2657 107.712 49.4272 107.579 49.5635C107.446 49.6999 107.286 49.8084 107.11 49.8826C106.926 49.9624 106.726 50.0026 106.502 50.0026C106.277 50.0026 106.073 49.9576 105.884 49.8676C105.697 49.7794 105.531 49.6516 105.399 49.4932C105.26 49.3166 105.155 49.1171 105.088 48.904ZM115.038 46.198H114.231V50.6416H115.038V46.198ZM110.014 46.198H110.821V47.5312H111.566C111.918 47.5312 112.204 47.5762 112.434 47.6608C112.664 47.746 112.848 47.8606 112.986 48.0004C113.123 48.1402 113.22 48.3052 113.277 48.4894C113.333 48.6742 113.363 48.8638 113.363 49.0636C113.363 49.2634 113.333 49.4536 113.266 49.6432C113.205 49.8328 113.098 49.9972 112.955 50.1472C112.812 50.2972 112.618 50.4172 112.373 50.5072C112.128 50.5966 111.832 50.6464 111.474 50.6464H110.009V46.198H110.014ZM110.821 48.2746V49.9024H111.408C111.812 49.9024 112.097 49.8328 112.261 49.6924C112.424 49.5526 112.506 49.3534 112.506 49.0888C112.506 48.8188 112.419 48.6148 112.256 48.4744C112.087 48.3346 111.806 48.2644 111.418 48.2644H110.821V48.2746Z" fill="white"/>
<path d="M120.373 50.002C120.179 50.2468 119.923 50.4316 119.617 50.5564C119.303 50.6829 118.966 50.7473 118.627 50.746C118.289 50.7505 117.954 50.6948 117.636 50.5816C117.351 50.4793 117.09 50.3195 116.87 50.1124C116.653 49.9049 116.483 49.6547 116.37 49.378C116.249 49.0746 116.188 48.7508 116.192 48.4246C116.192 48.1006 116.247 47.8006 116.365 47.5162C116.477 47.2312 116.641 46.987 116.845 46.7818C117.049 46.5724 117.294 46.4128 117.57 46.288C117.861 46.1612 118.176 46.0982 118.494 46.1032C118.856 46.1032 119.193 46.1482 119.5 46.2376C119.806 46.3276 120.067 46.4776 120.281 46.6876L119.908 47.3116C119.728 47.1501 119.516 47.0275 119.285 46.9516C119.066 46.8817 118.837 46.8465 118.606 46.8472C118.402 46.8472 118.208 46.8868 118.019 46.9618C117.833 47.0359 117.663 47.1444 117.519 47.2816C117.372 47.4236 117.256 47.5933 117.177 47.7808C117.09 47.9752 117.049 48.19 117.049 48.4294C117.049 48.6742 117.095 48.8938 117.182 49.0834C117.268 49.2784 117.386 49.4434 117.534 49.5826C117.682 49.723 117.856 49.8274 118.055 49.8976C118.254 49.9672 118.464 50.0074 118.688 50.0074C118.964 50.0074 119.209 49.9522 119.428 49.8472C119.64 49.7458 119.831 49.6053 119.99 49.4332L120.373 50.002ZM120.786 46.198H124.927V46.987H123.262V50.641H122.456V46.987H120.792V46.198H120.786Z" fill="white"/>
<path fill-rule="evenodd" clip-rule="evenodd" d="M126.612 46.1987H125.805V52.6187H126.612V50.4371C126.775 50.5421 126.969 50.6171 127.193 50.6669C127.418 50.7167 127.653 50.7413 127.893 50.7413C128.25 50.7413 128.572 50.6765 128.863 50.5571C129.142 50.4389 129.395 50.2677 129.608 50.0531C129.817 49.8377 129.976 49.5881 130.088 49.2935C130.2 48.9995 130.257 48.6845 130.257 48.3503C130.257 48.0203 130.206 47.7161 130.109 47.4413C130.017 47.1803 129.875 46.9396 129.69 46.7327C129.508 46.5309 129.283 46.3721 129.031 46.2683C128.756 46.1512 128.458 46.0933 128.158 46.0985C127.842 46.0985 127.546 46.1585 127.265 46.2785C126.984 46.3985 126.764 46.5425 126.612 46.7225V46.1987ZM127.173 47.0225C127.403 46.9025 127.653 46.8425 127.924 46.8425C128.159 46.8425 128.368 46.8773 128.557 46.9523C128.741 47.0273 128.894 47.1323 129.022 47.2721C129.149 47.4119 129.246 47.5721 129.308 47.7611C129.374 47.9507 129.405 48.1559 129.405 48.3803C129.405 48.6203 129.364 48.8345 129.293 49.0343C129.226 49.2237 129.119 49.3972 128.981 49.5437C128.841 49.6884 128.673 49.8023 128.486 49.8779C128.277 49.9642 128.053 50.0067 127.827 50.0027C127.608 50.0027 127.403 49.9781 127.209 49.9283C126.997 49.8711 126.795 49.7799 126.612 49.6583V47.4563C126.755 47.2871 126.944 47.1425 127.173 47.0225ZM136.444 46.1981H135.637V50.6417H136.444V46.1981ZM131.415 46.1981H132.222V47.5313H132.967C133.32 47.5313 133.606 47.5763 133.836 47.6609C134.065 47.7461 134.249 47.8607 134.387 48.0005C134.525 48.1403 134.622 48.3053 134.678 48.4895C134.734 48.6743 134.764 48.8639 134.764 49.0637C134.764 49.2635 134.734 49.4537 134.668 49.6433C134.607 49.8329 134.499 49.9973 134.356 50.1473C134.213 50.2973 134.019 50.4173 133.774 50.5073C133.529 50.5967 133.233 50.6465 132.876 50.6465H131.411V46.1981H131.415ZM132.228 48.2747V49.9025H132.815C133.218 49.9025 133.504 49.8329 133.667 49.6925C133.831 49.5527 133.913 49.3535 133.913 49.0889C133.913 48.8189 133.826 48.6149 133.663 48.4745C133.494 48.3347 133.213 48.2645 132.825 48.2645H132.228V48.2747Z" fill="white"/>
<path d="M140.315 48.34L142.041 50.6416H141.051L139.718 48.844L138.365 50.6416H137.426L139.141 48.3796L137.527 46.198H138.518L139.749 47.8756L140.999 46.198H141.939L140.315 48.34ZM69.443 56.1334H66.9671V59.8378H66.1602V55.3948H70.2493V59.8378H69.443V56.1334ZM74.8286 56.1832H73.236L73.1845 56.932C73.1287 57.5662 73.0522 58.0756 72.9448 58.4644C72.8374 58.8544 72.7046 59.1538 72.5517 59.3632C72.3988 59.5732 72.2198 59.7178 72.0154 59.788C71.8045 59.8636 71.5814 59.9008 71.3571 59.8978L71.2958 59.1286C71.3826 59.1334 71.4845 59.1136 71.5968 59.0638C71.7096 59.014 71.8218 58.9042 71.9286 58.7398C72.036 58.5694 72.1331 58.33 72.2198 58.0204C72.3066 57.706 72.363 57.2968 72.3933 56.782L72.4752 55.399H75.6355V59.8426H74.8286V56.1832Z" fill="white"/>
<path fill-rule="evenodd" clip-rule="evenodd" d="M77.8084 55.405C77.5475 55.4746 77.3127 55.5742 77.1137 55.699L77.3285 56.3284C77.5123 56.2384 77.6961 56.1634 77.8794 56.0986C78.0632 56.0338 78.2986 56.0038 78.5789 56.0038C78.804 56.0038 78.9823 56.0386 79.1201 56.1082C79.2584 56.1736 79.3603 56.2732 79.4319 56.3932C79.5029 56.5132 79.549 56.6632 79.5745 56.8372C79.5999 57.0124 79.6103 57.202 79.6103 57.4066C79.4451 57.2929 79.2569 57.2164 79.0588 57.1822C78.8671 57.1445 78.6724 57.1244 78.477 57.1222C78.2373 57.1222 78.0122 57.157 77.7981 57.217C77.5833 57.277 77.3995 57.367 77.2514 57.487C77.1003 57.6068 76.9782 57.7585 76.8941 57.931C76.8044 58.1199 76.7591 58.3265 76.7618 58.5352C76.7618 58.969 76.8892 59.3092 77.1447 59.5486C77.3995 59.788 77.7368 59.908 78.1554 59.908C78.5334 59.908 78.8343 59.8432 79.0642 59.713C79.2936 59.5834 79.4774 59.4334 79.6103 59.2636V59.8378H80.3662V57.112C80.3662 56.533 80.2382 56.0836 79.9779 55.7692C79.7225 55.4542 79.2681 55.2952 78.625 55.2952C78.3491 55.2954 78.0744 55.3327 77.8084 55.405ZM79.1613 59.0038C78.9781 59.134 78.7378 59.194 78.4418 59.194C78.176 59.194 77.977 59.1292 77.8345 59.0038C77.6913 58.8742 77.6197 58.7044 77.6197 58.495C77.6197 58.3702 77.6452 58.2652 77.7016 58.1704C77.7574 58.0756 77.8345 58.0006 77.9212 57.9406C78.008 57.8806 78.1148 57.8356 78.2325 57.8056C78.3492 57.7758 78.4693 57.7608 78.5898 57.7612C78.9878 57.7612 79.33 57.856 79.6109 58.0552V58.6192C79.4783 58.7659 79.3272 58.8951 79.1613 59.0038Z" fill="white"/>
<path d="M81.1562 55.3948H85.2969V56.1832H83.6322V59.8378H82.8259V56.1838H81.1617V55.3948H81.1562Z" fill="white"/>
<path fill-rule="evenodd" clip-rule="evenodd" d="M89.0645 59.7928C89.3709 59.698 89.6312 59.5528 89.8556 59.3536L89.6105 58.7344C89.4625 58.8646 89.2635 58.9744 89.0233 59.0644C88.7836 59.1544 88.513 59.1988 88.217 59.1988C87.7729 59.1988 87.4052 59.0842 87.114 58.8496C86.8228 58.615 86.665 58.2856 86.6292 57.8656H90.1214C90.1566 57.7114 90.1723 57.5362 90.1723 57.3316C90.1723 57.0274 90.1159 56.7526 90.0037 56.503C89.8991 56.2607 89.7462 56.0417 89.5541 55.8592C89.3601 55.6777 89.131 55.5367 88.8807 55.4446C88.6186 55.3441 88.3397 55.2932 88.0586 55.2946C87.6806 55.2946 87.3488 55.3594 87.0582 55.4794C86.7833 55.5934 86.5347 55.7616 86.3277 55.9738C86.1266 56.1847 85.9718 56.4345 85.8733 56.7076C85.7657 56.9985 85.7121 57.3062 85.715 57.616C85.715 57.9658 85.7762 58.285 85.8885 58.57C86.0013 58.8544 86.1694 59.0992 86.3787 59.3038C86.588 59.5084 86.8434 59.6632 87.1449 59.773C87.4675 59.8864 87.8079 59.9423 88.1502 59.938C88.4518 59.938 88.7581 59.8876 89.0645 59.7928ZM87.0175 56.368C87.2675 56.1436 87.5993 56.0338 88.018 56.0338C88.4166 56.0338 88.7278 56.1436 88.9577 56.3482C89.1871 56.5582 89.3096 56.8474 89.3302 57.217H86.5734C86.6124 56.89 86.7702 56.5883 87.0175 56.368ZM90.5655 55.3948H91.5865L93.1433 57.5368L91.4792 59.8378H90.489L92.2345 57.5362L90.5655 55.3948ZM93.3423 55.3948H94.1492V59.8378H93.3423V55.3948ZM97.0335 59.8378L95.257 57.5362L96.9164 55.3942H95.9153L94.3482 57.5362L96.033 59.8378H97.0335ZM100.72 59.7928C101.026 59.698 101.286 59.5528 101.511 59.3536L101.266 58.7344C101.118 58.8646 100.919 58.9744 100.679 59.0644C100.439 59.1544 100.168 59.1988 99.8722 59.1988C99.4281 59.1988 99.0604 59.0842 98.7692 58.8496C98.4786 58.615 98.3202 58.2856 98.2845 57.8656H101.777C101.812 57.7114 101.828 57.5362 101.828 57.3316C101.828 57.0274 101.772 56.7526 101.659 56.503C101.554 56.2608 101.402 56.0419 101.21 55.8592C101.016 55.6777 100.786 55.5367 100.536 55.4446C100.274 55.344 99.9949 55.2931 99.7138 55.2946C99.3365 55.2946 99.0046 55.3594 98.7134 55.4794C98.4387 55.5936 98.1904 55.7618 97.9835 55.9738C97.782 56.1844 97.6272 56.4343 97.5291 56.7076C97.4213 56.9984 97.3676 57.3062 97.3708 57.616C97.3708 57.9658 97.432 58.285 97.5443 58.57C97.6565 58.8544 97.8252 59.0992 98.0345 59.3038C98.2438 59.5084 98.4986 59.6632 98.8001 59.773C99.1229 59.8864 99.4635 59.9423 99.806 59.938C100.116 59.9357 100.424 59.8867 100.72 59.7928ZM98.6727 56.368C98.9233 56.1436 99.2552 56.0338 99.6738 56.0338C100.067 56.0338 100.383 56.1436 100.613 56.3482C100.843 56.5582 100.965 56.8474 100.985 57.217H98.2286C98.2676 56.89 98.4254 56.5883 98.6727 56.368ZM105.101 53.902C104.626 53.902 104.365 53.6422 104.325 53.1232H103.564C103.564 53.3224 103.6 53.5024 103.666 53.6722C103.733 53.842 103.83 53.9866 103.957 54.1066C104.084 54.2266 104.248 54.3214 104.437 54.3958C104.626 54.4708 104.845 54.5056 105.095 54.5056C105.325 54.5056 105.53 54.4708 105.713 54.3958C105.897 54.3262 106.05 54.2266 106.183 54.1066C106.31 53.9866 106.413 53.842 106.484 53.6722C106.556 53.5024 106.591 53.3224 106.591 53.1232H105.836C105.8 53.6422 105.55 53.902 105.101 53.902ZM102.92 55.3942V59.8378H103.727L106.351 56.5276V59.8378H107.158V55.3942H106.351L103.727 58.7044V55.3942H102.92Z" fill="white"/>
</g>
<defs>
<clipPath id="clip0_334_7841">
<rect width="145" height="72" fill="white" transform="translate(0.5)"/>
</clipPath>
</defs>
</svg>
