<svg width="15" height="16" viewBox="0 0 15 16" fill="none" xmlns="http://www.w3.org/2000/svg">
<path d="M7.06994 15.3434L6.91331 15.1867V11.8867V8.58669H3.61329H0.31326L0.15663 8.43006C0.0270051 8.29503 0 8.22482 0 8.00878C0 7.78193 0.0270051 7.71712 0.167432 7.58209L0.329463 7.42546L3.62409 7.40926L6.91331 7.39846V4.11463V0.830809L7.06454 0.679581C7.26438 0.495946 7.54524 0.447336 7.76668 0.560758C8.11234 0.738992 8.10154 0.641773 8.10154 4.18485V7.39846H11.3152C14.8582 7.39846 14.761 7.38766 14.9392 7.73332C15.0527 7.95476 15.0041 8.23562 14.8204 8.43546L14.6692 8.58669H11.3854H8.10154L8.09074 11.8759L8.07454 15.1705L7.91791 15.3326C7.78288 15.473 7.71807 15.5 7.49122 15.5C7.27518 15.5 7.20497 15.473 7.06994 15.3434Z" fill="#C31723"/>
</svg>
