<svg width="20" height="20" viewBox="0 0 20 20" fill="none" xmlns="http://www.w3.org/2000/svg">
<path d="M6.53393 0.0922832C5.53447 0.273603 4.40384 0.736284 3.46685 1.35527C2.90466 1.72417 1.7303 2.89962 1.35551 3.46859C0.424768 4.88789 0 6.30094 0 7.99535C0 9.68975 0.418521 11.0965 1.36176 12.5284C1.7303 13.0911 2.90466 14.2665 3.46685 14.6354C4.44132 15.2794 5.54697 15.7233 6.62138 15.9109C7.44593 16.0547 9.11377 16.0047 9.8696 15.8171C10.9128 15.5545 11.9685 15.0543 12.768 14.4541L13.1366 14.1727L16.0475 17.0864L18.9646 20H19.2957C19.5768 20 19.6518 19.975 19.8079 19.8187C20.064 19.5623 20.064 19.1809 19.8079 18.837C19.708 18.7057 18.4024 17.374 16.9033 15.8797C15.4041 14.3853 14.1797 13.1536 14.1797 13.1411C14.1797 13.1223 14.2734 12.9973 14.3921 12.8535C14.9418 12.1782 15.5103 10.9903 15.7851 9.9336C15.9975 9.12704 16.0537 7.50766 15.9038 6.61981C15.7164 5.53815 15.2729 4.43772 14.6357 3.46859C14.2422 2.86836 13.0803 1.71791 12.4619 1.31151C11.5125 0.692516 10.4693 0.273603 9.38862 0.086031C8.71398 -0.0327644 7.20231 -0.0265121 6.53393 0.0922832ZM9.26368 1.49908C10.6005 1.76793 11.6124 2.30564 12.5931 3.27477C13.5363 4.20013 14.086 5.13174 14.4171 6.36346C14.5608 6.89492 14.5795 7.08249 14.5795 7.99535C14.5795 8.9082 14.5608 9.09577 14.4171 9.62723C14.086 10.859 13.5363 11.7906 12.5931 12.7159C10.4193 14.8543 7.24604 15.2357 4.58499 13.6663C3.81042 13.2161 2.77973 12.1845 2.32998 11.4092C1.05567 9.24583 1.05567 6.7261 2.32373 4.59403C2.70477 3.95628 3.44187 3.13721 4.04779 2.68079C5.52198 1.57411 7.46467 1.13019 9.26368 1.49908Z" fill="#4E4E4E"/>
</svg>
